<svg width="25" height="26" viewBox="0 0 25 26" fill="none" xmlns="http://www.w3.org/2000/svg">
<path d="M2.34375 18.4687V16.2324C2.34375 10.6171 6.85547 5.98823 12.4609 5.9687C13.798 5.96356 15.1228 6.22246 16.3596 6.73056C17.5963 7.23866 18.7205 7.98595 19.6678 8.92955C20.615 9.87316 21.3666 10.9945 21.8794 12.2293C22.3923 13.464 22.6563 14.7879 22.6562 16.125V18.4687C22.6562 18.6759 22.5739 18.8746 22.4274 19.0211C22.2809 19.1676 22.0822 19.25 21.875 19.25H3.125C2.9178 19.25 2.71909 19.1676 2.57257 19.0211C2.42606 18.8746 2.34375 18.6759 2.34375 18.4687Z" stroke="#F7F7F7" stroke-width="2" stroke-linecap="round" stroke-linejoin="round"/>
<path d="M12.5 5.96875V9.09375" stroke="#F7F7F7" stroke-width="2" stroke-linecap="round" stroke-linejoin="round"/>
<path d="M2.68555 13.498L5.71289 14.3086" stroke="#F7F7F7" stroke-width="2" stroke-linecap="round" stroke-linejoin="round"/>
<path d="M22.3145 13.498L19.2871 14.3086" stroke="#F7F7F7" stroke-width="2" stroke-linecap="round" stroke-linejoin="round"/>
<path d="M10.0977 19.25L16.7773 10.5488" stroke="#F7F7F7" stroke-width="2" stroke-linecap="round" stroke-linejoin="round"/>
</svg>
