<svg width="25" height="26" viewBox="0 0 25 26" fill="none" xmlns="http://www.w3.org/2000/svg">
<path d="M23.5059 12.3946L21.0938 13.5957L17.9688 7.61918L20.4102 6.39848C20.5916 6.30599 20.8022 6.289 20.9962 6.3512C21.1901 6.4134 21.3515 6.54974 21.4453 6.73051L23.8477 11.3301C23.8964 11.4222 23.9262 11.5231 23.9353 11.6268C23.9445 11.7306 23.9328 11.8352 23.9009 11.9343C23.8691 12.0335 23.8177 12.1253 23.7499 12.2044C23.682 12.2834 23.5991 12.3481 23.5059 12.3946V12.3946Z" stroke="#fff" stroke-width="2" stroke-linecap="round" stroke-linejoin="round"/>
<path d="M3.90608 13.4981L1.49397 12.2871C1.4011 12.2416 1.31832 12.1779 1.25057 12.0997C1.18282 12.0216 1.13148 11.9306 1.09959 11.8322C1.0677 11.7338 1.05593 11.63 1.06496 11.527C1.07399 11.424 1.10365 11.3238 1.15218 11.2324L3.55452 6.63283C3.6485 6.4522 3.80928 6.3154 4.00263 6.25155C4.19598 6.18771 4.40662 6.20188 4.58968 6.29104L7.03108 7.51174L3.90608 13.4981Z" stroke="#fff" stroke-width="2" stroke-linecap="round" stroke-linejoin="round"/>
<path d="M21.0938 13.5956L19.5312 15.4316L15.9375 19.0253C15.8396 19.1169 15.7209 19.1834 15.5916 19.2191C15.4624 19.2548 15.3264 19.2587 15.1953 19.2304L9.53125 17.8144C9.42778 17.7856 9.33137 17.7357 9.24805 17.6679L3.90625 13.498" stroke="#fff" stroke-width="2" stroke-linecap="round" stroke-linejoin="round"/>
<path d="M19.5315 15.4317L15.2346 12.3067L13.9846 13.2442C13.4431 13.6484 12.7854 13.8668 12.1096 13.8668C11.4339 13.8668 10.7762 13.6484 10.2346 13.2442L9.7073 12.8438C9.61813 12.776 9.54437 12.6901 9.49091 12.5916C9.43745 12.4932 9.40551 12.3845 9.3972 12.2728C9.38889 12.1611 9.4044 12.0489 9.44271 11.9436C9.48102 11.8383 9.54125 11.7424 9.61941 11.6622L13.4475 7.84382C13.5194 7.77226 13.6048 7.71559 13.6986 7.67705C13.7924 7.63851 13.893 7.61885 13.9944 7.61921H17.969" stroke="#fff" stroke-width="2" stroke-linecap="round" stroke-linejoin="round"/>
<path d="M7.08984 7.51172L12.0996 6.04687C12.2776 5.99582 12.468 6.00967 12.6367 6.08593L16.0156 7.61914" stroke="#fff" stroke-width="2" stroke-linecap="round" stroke-linejoin="round"/>
<path d="M10.9375 21.291L7.99805 20.5488C7.87826 20.5218 7.76735 20.4646 7.67578 20.3828L5.46875 18.4688" stroke="#fff" stroke-width="2" stroke-linecap="round" stroke-linejoin="round"/>
</svg>
