<svg width="25" height="26" viewBox="0 0 25 26" fill="none" xmlns="http://www.w3.org/2000/svg">
<path d="M5.48797 10.6562C5.48667 9.73004 5.66862 8.81275 6.02335 7.95718C6.37807 7.1016 6.89856 6.32467 7.55484 5.67111C8.21112 5.01756 8.99021 4.5003 9.84725 4.14914C10.7043 3.79797 11.6223 3.61983 12.5485 3.62499C16.4157 3.65428 19.5114 6.86717 19.5114 10.7441V11.4375C19.5114 14.9336 20.2438 16.9648 20.8884 18.0781C20.9568 18.1967 20.9929 18.3311 20.993 18.468C20.9932 18.605 20.9573 18.7395 20.8891 18.8582C20.8208 18.9769 20.7226 19.0755 20.6042 19.1443C20.4858 19.2131 20.3514 19.2495 20.2145 19.25H4.78485C4.64794 19.2495 4.51357 19.2131 4.39519 19.1443C4.2768 19.0755 4.17857 18.9769 4.11033 18.8582C4.04208 18.7395 4.00623 18.605 4.00635 18.468C4.00647 18.3311 4.04256 18.1967 4.11102 18.0781C4.75555 16.9648 5.48797 14.9336 5.48797 11.4375V10.6562Z" stroke="#F7F7F7" stroke-width="2" stroke-linecap="round" stroke-linejoin="round"/>
<path d="M9.375 19.25V20.0312C9.375 20.8601 9.70424 21.6549 10.2903 22.241C10.8763 22.827 11.6712 23.1562 12.5 23.1562C13.3288 23.1562 14.1237 22.827 14.7097 22.241C15.2958 21.6549 15.625 20.8601 15.625 20.0312V19.25" stroke="#F7F7F7" stroke-width="2" stroke-linecap="round" stroke-linejoin="round"/>
</svg>
